<svg width="158" height="38" viewBox="0 0 158 38" fill="none" xmlns="http://www.w3.org/2000/svg">
<path fill-rule="evenodd" clip-rule="evenodd" d="M38.8948 10.4439C42.5669 13.3057 44.3763 17.2634 44.4423 21.8208C44.486 24.8382 43.9534 27.8039 42.5865 30.4098C41.8994 31.58 41.0319 32.6699 39.9597 33.6485C36.4979 36.8085 31.8524 37.9288 27.1082 37.9966C22.364 38.0644 17.6881 37.0774 14.1362 34.0178C12.5676 32.6666 11.4091 31.0786 10.5909 29.3422C8.83853 29.4468 7.04232 28.9397 5.55219 27.7794L5.55016 27.7778C1.87806 24.916 0.0686325 20.9584 0.00265147 16.4009C-0.0410323 13.3836 0.491876 10.4173 1.85875 7.81139C2.5459 6.6412 3.41308 5.55188 4.48522 4.57324C7.94708 1.41329 12.5925 0.292999 17.3367 0.225163C22.0809 0.157326 26.7569 1.14433 30.3088 4.20399C31.8773 5.55514 33.0358 7.14314 33.854 8.87954C35.6064 8.77491 37.4026 9.28207 38.8928 10.4423L38.8948 10.4439ZM7.97049 16.1791C7.97049 18.2905 8.63401 19.769 10.123 20.9739C10.7912 21.5147 10.8971 22.5008 10.3567 23.1729C9.81619 23.8449 8.83649 23.9496 8.16674 23.4073C5.93945 21.6022 4.85539 19.2392 4.85539 16.1791C4.85539 8.76023 9.05455 4.99843 17.3423 4.99843C25.63 4.99843 29.8307 8.76023 29.8307 16.1791C29.8307 19.2485 28.7467 21.6131 26.5162 23.4089C26.2297 23.6402 25.8854 23.7527 25.5428 23.7527C25.088 23.7527 24.6347 23.5526 24.3279 23.1682C23.789 22.4946 23.8965 21.51 24.5678 20.9708C26.0537 19.7737 26.7172 18.2952 26.7172 16.1791C26.7172 12.1954 25.6035 8.12414 17.3438 8.12414C9.08414 8.12414 7.97049 12.1969 7.97049 16.1791ZM33.6202 14.9569C34.1607 14.2865 35.1404 14.1786 35.8102 14.7225V14.721C38.0375 16.526 39.1215 18.8891 39.1215 21.9492C39.1215 29.368 34.9208 33.1298 26.6331 33.1298C18.3453 33.1298 14.1446 29.368 14.1446 21.9492C14.1446 18.8797 15.2287 16.5151 17.4591 14.7194C18.1288 14.1786 19.1101 14.2849 19.649 14.9601C20.1879 15.6337 20.0805 16.6183 19.4091 17.1574C17.9232 18.3546 17.2597 19.833 17.2597 21.9492C17.2597 25.9329 18.3734 30.0041 26.6331 30.0041C34.8928 30.0041 36.0064 25.9313 36.0064 21.9492C36.0064 19.8377 35.3429 18.3593 33.8539 17.1543C33.1857 16.6136 33.0798 15.629 33.6202 14.9569Z" fill="#2C46B1"/>
<path d="M68.4182 12.0446C69.8701 12.0446 71.1664 12.418 72.3071 13.1646C73.4686 13.8906 74.3812 14.8965 75.0449 16.1824C75.7294 17.4684 76.0716 18.9617 76.0716 20.6624C76.0716 22.3632 75.7294 23.8669 75.0449 25.1736C74.3812 26.4595 73.479 27.4758 72.3382 28.2225C71.2182 28.9484 69.9531 29.3114 68.5427 29.3114C67.713 29.3114 66.9353 29.1765 66.2093 28.9069C65.4834 28.6373 64.8404 28.2951 64.2804 27.8802C63.7412 27.4654 63.316 27.0506 63.0049 26.6358C62.7145 26.2002 62.5693 25.8373 62.5693 25.5469L63.5338 25.1425V27.4136C63.5338 27.9528 63.3575 28.4091 63.0049 28.7825C62.6523 29.1351 62.2064 29.3114 61.6671 29.3114C61.1278 29.3114 60.6819 29.1351 60.3293 28.7825C59.9767 28.4299 59.8004 27.9736 59.8004 27.4136V7.87573C59.8004 7.33647 59.9767 6.89054 60.3293 6.53794C60.6819 6.16461 61.1278 5.97794 61.6671 5.97794C62.2064 5.97794 62.6523 6.16461 63.0049 6.53794C63.3575 6.89054 63.5338 7.33647 63.5338 7.87573V15.778L63.0049 15.498C63.0049 15.2283 63.1501 14.9069 63.4404 14.5335C63.7308 14.1395 64.1249 13.7557 64.6227 13.3824C65.1204 12.9883 65.6908 12.6669 66.3338 12.418C66.9975 12.1691 67.6923 12.0446 68.4182 12.0446ZM67.9516 15.4669C67.039 15.4669 66.2404 15.695 65.556 16.1513C64.8716 16.6076 64.3323 17.2298 63.9382 18.018C63.5649 18.7854 63.3782 19.6669 63.3782 20.6624C63.3782 21.6373 63.5649 22.5291 63.9382 23.338C64.3323 24.1262 64.8716 24.7484 65.556 25.2047C66.2404 25.661 67.039 25.8891 67.9516 25.8891C68.8642 25.8891 69.6523 25.661 70.316 25.2047C71.0005 24.7484 71.5294 24.1262 71.9027 23.338C72.2968 22.5291 72.4938 21.6373 72.4938 20.6624C72.4938 19.6669 72.2968 18.7854 71.9027 18.018C71.5294 17.2298 71.0005 16.6076 70.316 16.1513C69.6523 15.695 68.8642 15.4669 67.9516 15.4669ZM81.2028 29.0002C80.6635 29.0002 80.2176 28.8239 79.865 28.4714C79.5124 28.098 79.3361 27.6417 79.3361 27.1025V14.2535C79.3361 13.7143 79.5124 13.2683 79.865 12.9157C80.2176 12.5424 80.6635 12.3557 81.2028 12.3557C81.742 12.3557 82.1879 12.5424 82.5405 12.9157C82.8931 13.2683 83.0694 13.7143 83.0694 14.2535V17.178L82.8517 15.0935C83.0798 14.5957 83.3702 14.1602 83.7228 13.7869C84.0961 13.3928 84.5109 13.0713 84.9672 12.8224C85.4235 12.5528 85.9109 12.3557 86.4294 12.2313C86.948 12.1069 87.4665 12.0446 87.985 12.0446C88.6072 12.0446 89.1257 12.2209 89.5406 12.5735C89.9761 12.9261 90.1939 13.3409 90.1939 13.818C90.1939 14.5024 90.0176 15.0002 89.665 15.3113C89.3124 15.6017 88.9287 15.7469 88.5139 15.7469C88.1198 15.7469 87.7569 15.6743 87.425 15.5291C87.1139 15.3839 86.7509 15.3113 86.3361 15.3113C85.9628 15.3113 85.5791 15.4046 85.185 15.5913C84.8117 15.7572 84.4591 16.0269 84.1272 16.4002C83.8161 16.7735 83.5568 17.2402 83.3494 17.8002C83.1628 18.3395 83.0694 18.9824 83.0694 19.7291V27.1025C83.0694 27.6417 82.8931 28.098 82.5405 28.4714C82.1879 28.8239 81.742 29.0002 81.2028 29.0002ZM99.967 29.3114C98.204 29.3114 96.6692 28.9484 95.3625 28.2225C94.0766 27.4758 93.081 26.4699 92.3758 25.2047C91.6914 23.9395 91.3491 22.5084 91.3491 20.9113C91.3491 19.0447 91.7225 17.458 92.4692 16.1513C93.2366 14.8239 94.2321 13.8076 95.4558 13.1024C96.6795 12.3972 97.9758 12.0446 99.3447 12.0446C100.403 12.0446 101.398 12.2624 102.331 12.698C103.285 13.1335 104.125 13.735 104.851 14.5024C105.577 15.2491 106.148 16.1202 106.563 17.1158C106.998 18.1113 107.216 19.1691 107.216 20.2891C107.195 20.7869 106.998 21.1913 106.625 21.5024C106.251 21.8136 105.816 21.9691 105.318 21.9691H93.4336L92.5003 18.858H103.918L103.234 19.4802V18.6402C103.192 18.0387 102.974 17.4995 102.58 17.0224C102.207 16.5454 101.73 16.1721 101.149 15.9024C100.589 15.612 99.9877 15.4669 99.3447 15.4669C98.7225 15.4669 98.1418 15.5498 97.6025 15.7158C97.0632 15.8817 96.5966 16.1617 96.2025 16.5558C95.8084 16.9498 95.4973 17.4787 95.2692 18.1424C95.041 18.8061 94.9269 19.6461 94.9269 20.6624C94.9269 21.7824 95.1551 22.7365 95.6114 23.5247C96.0884 24.2921 96.6899 24.8832 97.4158 25.298C98.1625 25.6921 98.9507 25.8891 99.7803 25.8891C100.548 25.8891 101.16 25.8269 101.616 25.7025C102.072 25.578 102.435 25.4328 102.705 25.2669C102.995 25.0802 103.254 24.9247 103.483 24.8002C103.856 24.6136 104.208 24.5202 104.54 24.5202C104.997 24.5202 105.37 24.6758 105.66 24.9869C105.971 25.298 106.127 25.661 106.127 26.0758C106.127 26.6358 105.837 27.1439 105.256 27.6002C104.717 28.0565 103.96 28.461 102.985 28.8136C102.01 29.1454 101.004 29.3114 99.967 29.3114ZM111.072 12.3557C111.467 12.3557 111.829 12.4594 112.161 12.6669C112.493 12.8535 112.742 13.1439 112.908 13.538L117.481 23.9913L116.797 24.3025L121.464 13.5691C121.816 12.7394 122.366 12.3454 123.112 12.3869C123.631 12.3869 124.046 12.5528 124.357 12.8846C124.689 13.1957 124.855 13.5898 124.855 14.0669C124.855 14.212 124.824 14.3676 124.761 14.5335C124.72 14.6995 124.668 14.855 124.606 15.0002L118.788 27.818C118.456 28.5647 117.927 28.9588 117.201 29.0002C116.807 29.0625 116.424 28.9899 116.05 28.7825C115.698 28.5751 115.428 28.2536 115.241 27.818L109.455 15.0002C109.413 14.8965 109.361 14.7617 109.299 14.5957C109.258 14.4298 109.237 14.2328 109.237 14.0046C109.237 13.6313 109.403 13.2683 109.735 12.9157C110.067 12.5424 110.512 12.3557 111.072 12.3557ZM129.444 28.9691C128.843 28.9691 128.376 28.8136 128.044 28.5025C127.733 28.1706 127.578 27.7039 127.578 27.1025V26.5736C127.578 25.9721 127.733 25.5158 128.044 25.2047C128.376 24.8728 128.843 24.7069 129.444 24.7069H129.849C130.45 24.7069 130.907 24.8728 131.218 25.2047C131.55 25.5158 131.715 25.9721 131.715 26.5736V27.1025C131.715 27.7039 131.55 28.1706 131.218 28.5025C130.907 28.8136 130.45 28.9691 129.849 28.9691H129.444ZM139.587 27.1025C139.587 27.6417 139.401 28.098 139.027 28.4714C138.675 28.8239 138.229 29.0002 137.69 29.0002C137.171 29.0002 136.735 28.8239 136.383 28.4714C136.03 28.098 135.854 27.6417 135.854 27.1025V7.87573C135.854 7.33647 136.03 6.89054 136.383 6.53794C136.756 6.16461 137.213 5.97794 137.752 5.97794C138.291 5.97794 138.727 6.16461 139.058 6.53794C139.411 6.89054 139.587 7.33647 139.587 7.87573V27.1025ZM155.824 12.3557C156.363 12.3557 156.809 12.5424 157.162 12.9157C157.514 13.2683 157.69 13.7143 157.69 14.2535V27.4758C157.69 29.3839 157.327 30.898 156.602 32.018C155.896 33.1588 154.942 33.978 153.739 34.4758C152.536 34.9736 151.188 35.2225 149.695 35.2225C149.031 35.2225 148.326 35.1706 147.579 35.0669C146.833 34.9632 146.221 34.8077 145.744 34.6003C145.121 34.3306 144.686 33.9884 144.437 33.5736C144.209 33.1795 144.167 32.7543 144.313 32.298C144.499 31.6965 144.8 31.2817 145.215 31.0536C145.63 30.8462 146.065 30.8254 146.521 30.9914C146.853 31.0951 147.289 31.2506 147.828 31.458C148.367 31.6862 148.99 31.8003 149.695 31.8003C150.649 31.8003 151.437 31.6654 152.059 31.3958C152.702 31.1469 153.179 30.7114 153.49 30.0891C153.822 29.4877 153.988 28.658 153.988 27.6002V25.5158L154.642 26.2625C154.289 26.9469 153.843 27.5173 153.304 27.9736C152.785 28.4091 152.163 28.741 151.437 28.9691C150.711 29.1973 149.881 29.3114 148.948 29.3114C147.849 29.3114 146.884 29.0625 146.055 28.5647C145.246 28.0462 144.613 27.341 144.157 26.4491C143.701 25.5365 143.473 24.4995 143.473 23.338V14.2535C143.473 13.7143 143.649 13.2683 144.001 12.9157C144.354 12.5424 144.8 12.3557 145.339 12.3557C145.879 12.3557 146.324 12.5424 146.677 12.9157C147.03 13.2683 147.206 13.7143 147.206 14.2535V22.218C147.206 23.5662 147.496 24.5202 148.077 25.0802C148.679 25.6195 149.508 25.8891 150.566 25.8891C151.292 25.8891 151.904 25.7543 152.402 25.4847C152.899 25.1943 153.283 24.7795 153.553 24.2402C153.822 23.6802 153.957 23.0061 153.957 22.218V14.2535C153.957 13.7143 154.133 13.2683 154.486 12.9157C154.839 12.5424 155.284 12.3557 155.824 12.3557Z" fill="#2C46B1"/>
</svg>
